<svg width="38" height="38" viewBox="0 0 38 38" fill="none" xmlns="http://www.w3.org/2000/svg">
<path d="M32.3106 25.8822C30.6144 24.0445 28.5561 22.5779 26.2653 21.5748C23.9745 20.5718 21.5008 20.0539 19 20.0539C16.4992 20.0539 14.0255 20.5718 11.7347 21.5748C9.44385 22.5779 7.38556 24.0445 5.68944 25.8822C5.42672 26.1713 5.2801 26.5472 5.27777 26.9378V33.2711C5.28332 33.6874 5.45258 34.0847 5.74892 34.3771C6.04525 34.6695 6.44481 34.8334 6.8611 34.8333H31.1389C31.5588 34.8333 31.9615 34.6665 32.2585 34.3696C32.5554 34.0727 32.7222 33.6699 32.7222 33.25V26.9167C32.7147 26.5334 32.5685 26.1658 32.3106 25.8822Z" fill="white"/>
<path d="M19 17.9444C23.0807 17.9444 26.3889 14.6363 26.3889 10.5556C26.3889 6.47478 23.0807 3.16667 19 3.16667C14.9192 3.16667 11.6111 6.47478 11.6111 10.5556C11.6111 14.6363 14.9192 17.9444 19 17.9444Z" fill="white"/>
</svg>
