<svg width="44" height="44" viewBox="0 0 44 44" fill="none" xmlns="http://www.w3.org/2000/svg">
<path d="M32.0833 11.9167H32.1016M12.8333 3.66675H31.1666C36.2292 3.66675 40.3333 7.7708 40.3333 12.8334V31.1667C40.3333 36.2294 36.2292 40.3334 31.1666 40.3334H12.8333C7.77068 40.3334 3.66663 36.2294 3.66663 31.1667V12.8334C3.66663 7.7708 7.77068 3.66675 12.8333 3.66675ZM29.3333 20.8451C29.5595 22.3709 29.2989 23.9291 28.5885 25.2983C27.8781 26.6674 26.7541 27.7777 25.3763 28.4712C23.9985 29.1646 22.4371 29.406 20.9142 29.161C19.3914 28.9159 17.9845 28.1969 16.8938 27.1062C15.8031 26.0155 15.0841 24.6087 14.8391 23.0858C14.594 21.5629 14.8354 20.0016 15.5289 18.6238C16.2224 17.246 17.3326 16.1219 18.7018 15.4115C20.0709 14.7011 21.6292 14.4405 23.155 14.6667C24.7113 14.8975 26.1522 15.6228 27.2647 16.7353C28.3773 17.8479 29.1025 19.2887 29.3333 20.8451Z" stroke="#EDE2C4" stroke-width="4" stroke-linecap="round" stroke-linejoin="round"/>
</svg>
