<svg width="42" height="42" viewBox="0 0 42 42" fill="none" xmlns="http://www.w3.org/2000/svg">
<path d="M21.7618 0.953125C10.3279 15.2467 18.3291 23.1403 25.2955 28.274C32.2618 33.4077 28.7144 38.9867 28.7144 38.9867" stroke="#F4F4F9" stroke-width="2"/>
<mask id="path-2-outside-1_84_611" maskUnits="userSpaceOnUse" x="6" y="15" width="31" height="12" fill="black">
<rect fill="white" x="6" y="15" width="31" height="12"/>
<path d="M15.7248 16.6L15.1728 18.64H12.9288L12.7968 18.748L11.1288 24.988H8.75284L9.91684 20.644L12.4968 18.64H8.03284L8.57284 16.6H15.7248ZM24.6844 18.22C24.8444 18.508 24.8764 18.832 24.7804 19.192L24.3364 20.86C24.2164 21.276 23.9684 21.632 23.5924 21.928C23.2164 22.224 22.8204 22.372 22.4044 22.372H18.6604L17.7004 20.308L17.0284 22.816L17.0884 22.948H23.7724L23.2204 24.988H14.0644L15.4684 19.756H17.8444L18.3364 20.548H22.7164L23.2324 18.652H15.7684L16.3204 16.6H22.9204C23.4884 16.6 23.8964 16.82 24.1444 17.26L24.6844 18.22ZM33.0211 17.308H35.3851L33.3331 25L30.9571 25.012L32.1211 20.656L29.8171 22.936C29.4651 23.288 29.0731 23.464 28.6411 23.464H26.0731C25.6571 23.464 25.3411 23.316 25.1251 23.02C24.9091 22.724 24.8571 22.368 24.9691 21.952L26.3971 16.6H28.7731L27.4771 21.412H30.8131L32.3131 19.924L33.0211 17.308Z"/>
</mask>
<path d="M15.7248 16.6L15.1728 18.64H12.9288L12.7968 18.748L11.1288 24.988H8.75284L9.91684 20.644L12.4968 18.64H8.03284L8.57284 16.6H15.7248ZM24.6844 18.22C24.8444 18.508 24.8764 18.832 24.7804 19.192L24.3364 20.86C24.2164 21.276 23.9684 21.632 23.5924 21.928C23.2164 22.224 22.8204 22.372 22.4044 22.372H18.6604L17.7004 20.308L17.0284 22.816L17.0884 22.948H23.7724L23.2204 24.988H14.0644L15.4684 19.756H17.8444L18.3364 20.548H22.7164L23.2324 18.652H15.7684L16.3204 16.6H22.9204C23.4884 16.6 23.8964 16.82 24.1444 17.26L24.6844 18.22ZM33.0211 17.308H35.3851L33.3331 25L30.9571 25.012L32.1211 20.656L29.8171 22.936C29.4651 23.288 29.0731 23.464 28.6411 23.464H26.0731C25.6571 23.464 25.3411 23.316 25.1251 23.02C24.9091 22.724 24.8571 22.368 24.9691 21.952L26.3971 16.6H28.7731L27.4771 21.412H30.8131L32.3131 19.924L33.0211 17.308Z" fill="#F4F4F9"/>
<path d="M15.7248 16.6L16.6901 16.8612L17.0314 15.6H15.7248V16.6ZM15.1728 18.64V19.64H15.9382L16.1381 18.9012L15.1728 18.64ZM12.9288 18.64V17.64H12.5719L12.2956 17.866L12.9288 18.64ZM12.7968 18.748L12.1636 17.974L11.914 18.1782L11.8308 18.4898L12.7968 18.748ZM11.1288 24.988V25.988H11.8966L12.0949 25.2462L11.1288 24.988ZM8.75284 24.988L7.78691 24.7292L7.4496 25.988H8.75284V24.988ZM9.91684 20.644L9.3034 19.8543L9.03792 20.0605L8.95091 20.3852L9.91684 20.644ZM12.4968 18.64L13.1103 19.4297L15.4144 17.64H12.4968V18.64ZM8.03284 18.64L7.06613 18.3841L6.73369 19.64H8.03284V18.64ZM8.57284 16.6V15.6H7.8031L7.60613 16.3441L8.57284 16.6ZM15.7248 16.6L14.7596 16.3388L14.2076 18.3788L15.1728 18.64L16.1381 18.9012L16.6901 16.8612L15.7248 16.6ZM15.1728 18.64V17.64H12.9288V18.64V19.64H15.1728V18.64ZM12.9288 18.64L12.2956 17.866L12.1636 17.974L12.7968 18.748L13.4301 19.522L13.5621 19.414L12.9288 18.64ZM12.7968 18.748L11.8308 18.4898L10.1628 24.7298L11.1288 24.988L12.0949 25.2462L13.7629 19.0062L12.7968 18.748ZM11.1288 24.988V23.988H8.75284V24.988V25.988H11.1288V24.988ZM8.75284 24.988L9.71876 25.2468L10.8828 20.9028L9.91684 20.644L8.95091 20.3852L7.78691 24.7292L8.75284 24.988ZM9.91684 20.644L10.5303 21.4337L13.1103 19.4297L12.4968 18.64L11.8834 17.8503L9.3034 19.8543L9.91684 20.644ZM12.4968 18.64V17.64H8.03284V18.64V19.64H12.4968V18.64ZM8.03284 18.64L8.99954 18.8959L9.53954 16.8559L8.57284 16.6L7.60613 16.3441L7.06613 18.3841L8.03284 18.64ZM8.57284 16.6V17.6H15.7248V16.6V15.6H8.57284V16.6ZM24.6844 18.22L25.5586 17.7344L25.556 17.7297L24.6844 18.22ZM24.7804 19.192L23.8142 18.9343L23.8141 18.9348L24.7804 19.192ZM24.3364 20.86L25.2973 21.1372L25.3001 21.1272L25.3028 21.1172L24.3364 20.86ZM18.6604 22.372L17.7537 22.7937L18.0227 23.372H18.6604V22.372ZM17.7004 20.308L18.6072 19.8863L17.4467 17.3912L16.7345 20.0492L17.7004 20.308ZM17.0284 22.816L16.0625 22.5572L15.9697 22.9035L16.1181 23.2298L17.0284 22.816ZM17.0884 22.948L16.1781 23.3618L16.4445 23.948H17.0884V22.948ZM23.7724 22.948L24.7377 23.2092L25.079 21.948H23.7724V22.948ZM23.2204 24.988V25.988H23.9858L24.1857 25.2492L23.2204 24.988ZM14.0644 24.988L13.0986 24.7288L12.7607 25.988H14.0644V24.988ZM15.4684 19.756V18.756H14.7014L14.5026 19.4968L15.4684 19.756ZM17.8444 19.756L18.6939 19.2283L18.4005 18.756H17.8444V19.756ZM18.3364 20.548L17.487 21.0757L17.7804 21.548H18.3364V20.548ZM22.7164 20.548V21.548H23.4806L23.6813 20.8106L22.7164 20.548ZM23.2324 18.652L24.1973 18.9146L24.541 17.652H23.2324V18.652ZM15.7684 18.652L14.8028 18.3922L14.4639 19.652H15.7684V18.652ZM16.3204 16.6V15.6H15.5539L15.3548 16.3402L16.3204 16.6ZM24.1444 17.26L25.016 16.7697L25.0156 16.769L24.1444 17.26ZM24.6844 18.22L23.8103 18.7056C23.8277 18.7369 23.8529 18.7892 23.8142 18.9343L24.7804 19.192L25.7467 19.4497C25.9 18.8748 25.8612 18.2791 25.5586 17.7344L24.6844 18.22ZM24.7804 19.192L23.8141 18.9348L23.3701 20.6028L24.3364 20.86L25.3028 21.1172L25.7468 19.4492L24.7804 19.192ZM24.3364 20.86L23.3756 20.5828C23.3197 20.7765 23.2035 20.9615 22.9739 21.1423L23.5924 21.928L24.211 22.7137C24.7333 22.3025 25.1131 21.7755 25.2973 21.1372L24.3364 20.86ZM23.5924 21.928L22.9739 21.1423C22.7464 21.3213 22.5631 21.372 22.4044 21.372V22.372V23.372C23.0778 23.372 23.6865 23.1267 24.211 22.7137L23.5924 21.928ZM22.4044 22.372V21.372H18.6604V22.372V23.372H22.4044V22.372ZM18.6604 22.372L19.5672 21.9503L18.6072 19.8863L17.7004 20.308L16.7937 20.7297L17.7537 22.7937L18.6604 22.372ZM17.7004 20.308L16.7345 20.0492L16.0625 22.5572L17.0284 22.816L17.9944 23.0748L18.6664 20.5668L17.7004 20.308ZM17.0284 22.816L16.1181 23.2298L16.1781 23.3618L17.0884 22.948L17.9988 22.5342L17.9388 22.4022L17.0284 22.816ZM17.0884 22.948V23.948H23.7724V22.948V21.948H17.0884V22.948ZM23.7724 22.948L22.8071 22.6868L22.2551 24.7268L23.2204 24.988L24.1857 25.2492L24.7377 23.2092L23.7724 22.948ZM23.2204 24.988V23.988H14.0644V24.988V25.988H23.2204V24.988ZM14.0644 24.988L15.0303 25.2472L16.4343 20.0152L15.4684 19.756L14.5026 19.4968L13.0986 24.7288L14.0644 24.988ZM15.4684 19.756V20.756H17.8444V19.756V18.756H15.4684V19.756ZM17.8444 19.756L16.995 20.2837L17.487 21.0757L18.3364 20.548L19.1859 20.0203L18.6939 19.2283L17.8444 19.756ZM18.3364 20.548V21.548H22.7164V20.548V19.548H18.3364V20.548ZM22.7164 20.548L23.6813 20.8106L24.1973 18.9146L23.2324 18.652L22.2675 18.3894L21.7515 20.2854L22.7164 20.548ZM23.2324 18.652V17.652H15.7684V18.652V19.652H23.2324V18.652ZM15.7684 18.652L16.7341 18.9118L17.2861 16.8598L16.3204 16.6L15.3548 16.3402L14.8028 18.3922L15.7684 18.652ZM16.3204 16.6V17.6H22.9204V16.6V15.6H16.3204V16.6ZM22.9204 16.6V17.6C23.0757 17.6 23.149 17.6297 23.1778 17.6452C23.2007 17.6575 23.2334 17.6803 23.2733 17.751L24.1444 17.26L25.0156 16.769C24.5651 15.9698 23.795 15.6 22.9204 15.6V16.6ZM24.1444 17.26L23.2729 17.7503L23.8129 18.7103L24.6844 18.22L25.556 17.7297L25.016 16.7697L24.1444 17.26ZM33.0211 17.308V16.308H32.2558L32.0559 17.0468L33.0211 17.308ZM35.3851 17.308L36.3514 17.5658L36.6869 16.308H35.3851V17.308ZM33.3331 25L33.3382 26L34.1024 25.9961L34.2994 25.2578L33.3331 25ZM30.9571 25.012L29.991 24.7538L29.6531 26.0186L30.9622 26.012L30.9571 25.012ZM32.1211 20.656L33.0873 20.9142L34.0394 17.3508L31.4178 19.9452L32.1211 20.656ZM29.8172 22.936L29.1137 22.2252L29.11 22.2289L29.8172 22.936ZM25.1251 23.02L25.9329 22.4305L25.1251 23.02ZM24.9691 21.952L25.9348 22.212L25.9353 22.2098L24.9691 21.952ZM26.3971 16.6V15.6H25.629L25.431 16.3422L26.3971 16.6ZM28.7731 16.6L29.7387 16.8601L30.0781 15.6H28.7731V16.6ZM27.4771 21.412L26.5116 21.1519L26.1722 22.412H27.4771V21.412ZM30.8131 21.412V22.412H31.225L31.5174 22.1219L30.8131 21.412ZM32.3131 19.924L33.0174 20.6339L33.2082 20.4447L33.2784 20.1852L32.3131 19.924ZM33.0211 17.308V18.308H35.3851V17.308V16.308H33.0211V17.308ZM35.3851 17.308L34.4189 17.0502L32.3669 24.7422L33.3331 25L34.2994 25.2578L36.3514 17.5658L35.3851 17.308ZM33.3331 25L33.3281 24L30.9521 24.012L30.9571 25.012L30.9622 26.012L33.3382 26L33.3331 25ZM30.9571 25.012L31.9233 25.2702L33.0873 20.9142L32.1211 20.656L31.155 20.3978L29.991 24.7538L30.9571 25.012ZM32.1211 20.656L31.4178 19.9452L29.1138 22.2252L29.8172 22.936L30.5205 23.6468L32.8245 21.3668L32.1211 20.656ZM29.8172 22.936L29.11 22.2289C28.9146 22.4243 28.7671 22.464 28.6411 22.464V23.464V24.464C29.3792 24.464 30.0157 24.1517 30.5243 23.6431L29.8172 22.936ZM28.6411 23.464V22.464H26.0731V23.464V24.464H28.6411V23.464ZM26.0731 23.464V22.464C25.9839 22.464 25.9505 22.4484 25.9483 22.4474C25.9466 22.4466 25.9467 22.4465 25.9467 22.4465C25.9464 22.4463 25.9415 22.4423 25.9329 22.4305L25.1251 23.02L24.3174 23.6095C24.7491 24.2011 25.3874 24.464 26.0731 24.464V23.464ZM25.1251 23.02L25.9329 22.4305C25.9189 22.4113 25.9157 22.4005 25.9136 22.3865C25.9109 22.3674 25.9074 22.3137 25.9348 22.212L24.9691 21.952L24.0035 21.692C23.8283 22.3431 23.8905 23.0245 24.3174 23.6095L25.1251 23.02ZM24.9691 21.952L25.9353 22.2098L27.3633 16.8578L26.3971 16.6L25.431 16.3422L24.003 21.6942L24.9691 21.952ZM26.3971 16.6V17.6H28.7731V16.6V15.6H26.3971V16.6ZM28.7731 16.6L27.8076 16.3399L26.5116 21.1519L27.4771 21.412L28.4427 21.6721L29.7387 16.8601L28.7731 16.6ZM27.4771 21.412V22.412H30.8131V21.412V20.412H27.4771V21.412ZM30.8131 21.412L31.5174 22.1219L33.0174 20.6339L32.3131 19.924L31.6089 19.2141L30.1089 20.7021L30.8131 21.412ZM32.3131 19.924L33.2784 20.1852L33.9864 17.5692L33.0211 17.308L32.0559 17.0468L31.3479 19.6628L32.3131 19.924Z" fill="#111D29" mask="url(#path-2-outside-1_84_611)"/>
<circle cx="21" cy="21" r="20" stroke="#F4F4F9" stroke-width="2"/>
</svg>
