<svg width="37" height="37" viewBox="0 0 37 37" fill="none" xmlns="http://www.w3.org/2000/svg">
<path d="M10.7916 27.7526C9.09579 27.7526 7.72371 29.1401 7.72371 30.8359C7.72371 32.5318 9.09579 33.9193 10.7916 33.9193C12.4875 33.9193 13.875 32.5318 13.875 30.8359C13.875 29.1401 12.4875 27.7526 10.7916 27.7526ZM1.54163 4.62761C1.54163 5.47553 2.23538 6.16928 3.08329 6.16928H4.62496L10.175 17.8705L8.09371 21.6322C6.96829 23.698 8.44829 26.2109 10.7916 26.2109H27.75C28.5979 26.2109 29.2916 25.5172 29.2916 24.6693C29.2916 23.8214 28.5979 23.1276 27.75 23.1276H10.7916L12.4875 20.0443H23.9729C25.1291 20.0443 26.1466 19.4122 26.6708 18.4564L32.19 8.45095C32.3199 8.21727 32.3865 7.95372 32.3833 7.68637C32.3801 7.41902 32.3072 7.15714 32.1717 6.92664C32.0362 6.69615 31.8429 6.50503 31.6108 6.37219C31.3788 6.23936 31.1161 6.16941 30.8487 6.16928H8.03204L6.99913 3.9647C6.87568 3.7012 6.67948 3.47847 6.43365 3.32278C6.18782 3.16709 5.90261 3.08492 5.61163 3.08595H3.08329C2.23538 3.08595 1.54163 3.7797 1.54163 4.62761ZM26.2083 27.7526C24.5125 27.7526 23.1404 29.1401 23.1404 30.8359C23.1404 32.5318 24.5125 33.9193 26.2083 33.9193C27.9041 33.9193 29.2916 32.5318 29.2916 30.8359C29.2916 29.1401 27.9041 27.7526 26.2083 27.7526Z" fill="white"/>
</svg>
